<svg width="276" height="176" viewBox="0 0 276 176" fill="none" xmlns="http://www.w3.org/2000/svg">
<path d="M227.703 176C224.627 176 221.597 176 218.521 176C218.016 175.862 217.511 175.631 217.006 175.585C195.383 173.097 177.434 157.432 172.246 136.285C171.741 134.165 170.869 133.428 168.895 133.751C167.38 133.981 165.498 133.705 164.35 134.488C162.514 135.732 161.136 137.713 159.438 139.51C161.595 142.643 160.953 148.632 167.701 147.388C169.078 147.112 170.088 148.402 169.767 149.738C169.537 150.614 168.436 151.858 167.701 151.904C163.432 152.088 159.116 152.088 154.847 151.904C154.112 151.858 152.919 150.475 152.919 149.692C152.919 148.909 154.021 147.941 154.847 147.435C155.444 147.066 156.454 147.296 157.601 147.204C156.637 145.085 155.765 143.196 154.939 141.307C154.388 141.399 154.066 141.445 153.791 141.491C141.166 144.302 130.378 134.995 131.113 122.048C131.159 121.173 130.516 120.021 129.873 119.422C115.596 106.429 101.318 93.4367 86.9952 80.4901C86.4443 79.9832 85.8934 79.5225 85.3426 79.0618C84.103 80.9508 84.6539 82.0105 86.123 83.3466C101.778 97.1686 108.021 114.538 103.476 134.857C98.8853 155.267 85.7557 168.306 65.694 174.111C62.8477 174.94 59.8637 175.309 56.9715 175.908C53.8957 175.908 50.8658 175.908 47.79 175.908C47.285 175.77 46.8259 175.539 46.275 175.493C24.5607 172.176 9.96199 160.151 2.61674 139.372C1.33133 135.824 0.872248 131.862 0 128.084C0 124.997 0 121.956 0 118.869C0.321354 117.21 0.642709 115.598 0.918155 113.939C5.3253 87.9539 30.4828 68.6031 56.6043 71.3215C62.0673 71.8744 67.4844 73.4408 73.177 74.5466C74.0033 71.7361 75.0133 68.4649 75.9774 65.1476C79.3745 53.445 82.7717 41.7424 86.123 30.0398C86.9034 27.3215 86.5821 27.0911 83.8735 26.7686C80.8436 26.4 77.7678 26.0314 74.9215 25.1099C70.7439 23.8199 67.7599 21.0094 66.7499 16.5403C65.2809 10.2283 68.9535 4.1466 75.7937 1.70471C77.9973 0.967539 80.3386 0.55288 82.634 0C94.8914 0 107.103 0 119.36 0C121.38 1.15183 123.262 2.39581 123.813 4.88377C124.823 9.16859 121.747 12.7623 116.973 12.7623C105.634 12.7623 94.3405 12.7623 83.0013 12.8084C82.129 12.8084 81.2568 13.3152 80.4304 13.5916C81.2568 13.9141 82.0372 14.4209 82.9094 14.5131C85.0212 14.6513 87.1789 14.5131 89.3365 14.5592C95.0291 14.6974 99.5281 18.7518 99.574 24.511C99.574 27.9204 98.6558 31.2838 98.1049 34.6932C97.9213 35.9372 97.5081 37.1351 97.1868 38.4251C97.9672 38.5173 98.4263 38.5634 98.8853 38.5634C124.64 38.6094 150.44 38.6555 176.194 38.6555C176.699 38.6555 177.479 38.3791 177.663 38.0105C178.811 35.4764 179.867 32.8503 181.014 30.0398C180.004 29.9937 179.362 29.9476 178.673 29.9476C172.797 29.9476 166.875 29.9937 160.999 29.9476C156.959 29.9016 154.25 26.8147 154.663 22.8984C154.985 19.5812 157.555 17.3236 161.366 17.3236C174.082 17.2775 186.753 17.2775 199.469 17.2775C199.928 17.2775 200.387 17.3236 200.847 17.4157C204.198 18.0147 206.31 20.6869 206.126 24.1424C205.942 27.3215 203.371 29.8094 200.112 29.9937C198.964 30.0398 197.817 30.0859 196.669 29.9937C195.338 29.9016 194.603 30.3623 194.098 31.6524C192.767 35.1539 191.39 38.6555 189.737 42.0649C188.91 43.8157 189.186 44.8754 190.563 46.1654C191.895 47.4094 192.996 48.9298 193.914 50.5424C197.817 57.3152 201.673 64.088 205.391 70.999C206.493 73.0262 207.457 73.5791 209.753 72.934C238.353 65.2859 267.688 83.2084 274.069 112.235C274.574 114.446 274.942 116.704 275.355 118.961C275.355 122.048 275.355 125.089 275.355 128.176C275.217 128.821 274.988 129.466 274.896 130.157C272.049 152.134 256.028 169.826 234.497 174.71C232.339 175.125 229.998 175.539 227.703 176ZM69.4126 87.8618C55.4107 80.2136 31.9059 82.5173 19.1894 101.868C7.34524 119.883 12.2115 144.025 30.2073 156.373C48.1114 168.674 72.4884 164.113 85.0671 146.145C97.4163 128.498 92.3205 106.291 80.4763 95.7864C80.3845 95.9246 80.2468 96.0168 80.2009 96.155C79.4664 98.5047 78.8236 100.854 78.0432 103.158C73.682 115.414 66.2449 124.905 53.8957 129.881C50.5445 131.217 47.0096 129.696 45.6782 126.517C44.301 123.2 45.6782 119.56 49.1672 118.132C56.8797 114.999 61.9296 109.286 65.0054 101.73C66.7499 97.2607 67.9435 92.5613 69.4126 87.8618ZM185.008 133.751C186.34 146.098 200.571 159.46 215.307 162.501C232.064 165.91 249.233 157.893 257.726 142.735C266.081 127.853 263.74 109.194 252.171 96.5696C241.016 84.4063 223.755 81.5497 213.517 85.2817C218.154 93.5749 222.836 101.868 227.427 110.161C228.896 112.787 230.503 115.321 231.605 118.086C234.543 125.734 229.952 132.921 221.826 133.659C220.77 133.751 219.669 133.751 218.613 133.751C208.284 133.751 197.954 133.751 187.625 133.751C186.799 133.751 185.926 133.751 185.008 133.751ZM139.927 107.996C139.422 106.844 138.917 105.83 138.55 104.771C137.356 101.546 136.117 98.5047 131.618 99.4262C130.286 99.7026 129.184 98.4586 129.552 97.0764C129.781 96.201 130.883 94.9571 131.618 94.911C135.887 94.6806 140.156 94.6806 144.472 94.911C145.206 94.9571 146.538 96.4314 146.446 97.0764C146.308 97.9518 145.206 98.8733 144.334 99.4262C143.737 99.7948 142.773 99.4723 141.58 99.4723C142.406 101.315 143.003 102.697 143.6 104.034C143.783 104.448 143.967 104.909 144.196 105.277C144.334 105.508 144.564 105.784 144.839 105.876C146.492 106.475 150.027 104.909 150.669 103.342C157.555 86.8021 164.442 70.2618 171.328 53.6754C171.649 52.9382 171.879 52.155 172.2 51.3717C171.833 51.2335 171.695 51.1414 171.557 51.1414C146.033 51.1414 120.462 51.1414 94.9373 51.0492C93.606 51.0492 93.2387 51.7403 92.9632 52.7539C91.9992 56.1634 91.1269 59.5728 89.9792 62.8901C89.3365 64.733 89.8415 65.7927 91.1728 66.9906C102.374 77.0806 113.53 87.2168 124.731 97.3529C129.139 101.361 133.546 105.324 138.045 109.378C138.641 108.963 139.238 108.503 139.927 107.996ZM170.593 120.896C171.925 102.836 180.28 88.9215 195.338 78.8314C191.39 71.7822 187.487 64.8251 183.493 57.6838C183.172 58.2366 182.988 58.3749 182.897 58.6052C175.964 75.2838 168.987 91.9623 162.1 108.687C161.825 109.332 162.238 110.484 162.605 111.221C163.983 113.755 165.819 116.105 166.783 118.777C167.563 120.85 168.344 121.541 170.593 120.896ZM201.627 89.9812C190.609 97.6754 184.549 107.719 183.402 120.896C195.338 120.896 206.998 120.896 218.98 120.896C213.15 110.484 207.457 100.394 201.627 89.9812ZM149.522 130.848C153.332 130.848 156.362 127.807 156.362 123.983C156.362 120.297 153.332 117.257 149.659 117.21C145.895 117.164 142.773 120.205 142.727 124.029C142.681 127.807 145.711 130.848 149.522 130.848Z" fill="#444444"/>
</svg>
