<svg width="342" height="377" viewBox="0 0 342 377" fill="none" xmlns="http://www.w3.org/2000/svg">
<g clip-path="url(#clip0_88_2235)">
<mask id="mask0_88_2235" style="mask-type:luminance" maskUnits="userSpaceOnUse" x="-276" y="-401" width="1920" height="1080">
<path d="M1644 -401H-276V679H1644V-401Z" fill="white"/>
</mask>
<g mask="url(#mask0_88_2235)">
<mask id="mask1_88_2235" style="mask-type:luminance" maskUnits="userSpaceOnUse" x="-276" y="-401" width="1920" height="1080">
<path d="M1644 -401H-276V679H1644V-401Z" fill="white"/>
</mask>
<g mask="url(#mask1_88_2235)">
<mask id="mask2_88_2235" style="mask-type:luminance" maskUnits="userSpaceOnUse" x="-276" y="-401" width="1920" height="1080">
<path d="M1644 -401H-276V679H1644V-401Z" fill="white"/>
</mask>
<g mask="url(#mask2_88_2235)">
<path d="M227.5 151.5C211.7 151.5 199.7 145.4 192.4 140.2C173.5 126.9 151.3 120.1 128.9 120.1C114.4 120.1 99.8997 122.9 86.0997 128.7C81.7997 130.5 77.1997 131.5 72.2997 131.7C71.7997 131.7 71.1997 131.7 70.4997 131.7C49.1997 131.7 31.6997 115 30.7997 93.7C30.2997 82.9 33.8998 73 41.1998 65C48.4998 57 57.9997 52.6 68.7997 52.1C69.3997 52.1 69.9997 52.1 70.5997 52.1C75.6997 52.1 80.5997 53 85.0997 54.8C97.9997 59.8 111.4 62.2 124.8 62.2C148.2 62.2 171.4 54.7 190.7 40.3C197.8 35 205.9 31.4 214.9 29.5C219.1 28.6 223.3 28.2 227.6 28.2C256.1 28.2 282 49.3 287.8 77.2C291.2 93.5 288.2 109.6 279.1 123.5C270 137.5 256.5 146.7 240.2 150.1C236 151 231.8 151.5 227.5 151.5Z" fill="#4EAE33"/>
</g>
<mask id="mask3_88_2235" style="mask-type:luminance" maskUnits="userSpaceOnUse" x="-276" y="-401" width="1920" height="1080">
<path d="M1644 -401H-276V679H1644V-401Z" fill="white"/>
</mask>
<g mask="url(#mask3_88_2235)">
<path d="M228.2 352C212.7 352 200.8 345.9 193.7 340.8C174.7 327.3 152.3 320.4 129.8 320.4C115.2 320.4 100.4 323.3 86.6 329.2C82.3 331 77.7 332.1 72.9 332.3C72.2 332.3 71.7 332.3 71.1 332.3C49.8 332.3 32.3 315.6 31.4 294.3C30.8 280.1 37.7 270.3 41.8 265.7C46 261.1 55.1 253.4 69.4 252.7C70 252.7 70.6 252.7 71.2 252.7C76.6 252.7 81.7 253.7 86.5 255.7C100 261.3 114.3 264 128.5 264C151.4 264 174 256.9 193.1 243.1C199.9 238.2 207.6 234.8 216 233.1C220.1 232.2 224.3 231.8 228.4 231.8C256.2 231.8 281.5 252.4 287.2 279.6C290.5 295.5 287.6 311.2 278.7 324.8C269.8 338.4 256.6 347.4 240.7 350.7C236.5 351.5 232.3 352 228.2 352Z" fill="#4EAE33"/>
</g>
</g>
</g>
</g>
<defs>
<clipPath id="clip0_88_2235">
<rect width="342" height="377" fill="white"/>
</clipPath>
</defs>
</svg>
