<svg width="45" height="45" viewBox="0 0 45 45" fill="none" xmlns="http://www.w3.org/2000/svg">
<path d="M16.8929 10.7143H27.3929C31.3929 10.7143 34.6429 13.9643 34.6429 17.9643V28.4643C34.6429 30.3871 33.879 32.2312 32.5194 33.5908C31.1597 34.9505 29.3157 35.7143 27.3929 35.7143H16.8929C12.8929 35.7143 9.64285 32.4643 9.64285 28.4643V17.9643C9.64285 16.0415 10.4067 14.1974 11.7663 12.8378C13.126 11.4781 14.97 10.7143 16.8929 10.7143ZM16.6429 13.2143C15.4494 13.2143 14.3048 13.6884 13.4609 14.5323C12.617 15.3762 12.1429 16.5208 12.1429 17.7143V28.7143C12.1429 31.2018 14.1554 33.2143 16.6429 33.2143H27.6429C28.8363 33.2143 29.9809 32.7402 30.8248 31.8963C31.6687 31.0524 32.1429 29.9078 32.1429 28.7143V17.7143C32.1429 15.2268 30.1304 13.2143 27.6429 13.2143H16.6429ZM28.7054 15.0893C29.1198 15.0893 29.5172 15.2539 29.8102 15.5469C30.1032 15.84 30.2679 16.2374 30.2679 16.6518C30.2679 17.0662 30.1032 17.4636 29.8102 17.7566C29.5172 18.0497 29.1198 18.2143 28.7054 18.2143C28.291 18.2143 27.8935 18.0497 27.6005 17.7566C27.3075 17.4636 27.1429 17.0662 27.1429 16.6518C27.1429 16.2374 27.3075 15.84 27.6005 15.5469C27.8935 15.2539 28.291 15.0893 28.7054 15.0893ZM22.1429 16.9643C23.8005 16.9643 25.3902 17.6228 26.5623 18.7949C27.7344 19.967 28.3929 21.5567 28.3929 23.2143C28.3929 24.8719 27.7344 26.4616 26.5623 27.6337C25.3902 28.8058 23.8005 29.4643 22.1429 29.4643C20.4852 29.4643 18.8955 28.8058 17.7234 27.6337C16.5513 26.4616 15.8929 24.8719 15.8929 23.2143C15.8929 21.5567 16.5513 19.967 17.7234 18.7949C18.8955 17.6228 20.4852 16.9643 22.1429 16.9643ZM22.1429 19.4643C21.1483 19.4643 20.1945 19.8594 19.4912 20.5626C18.7879 21.2659 18.3929 22.2197 18.3929 23.2143C18.3929 24.2089 18.7879 25.1627 19.4912 25.8659C20.1945 26.5692 21.1483 26.9643 22.1429 26.9643C23.1374 26.9643 24.0912 26.5692 24.7945 25.8659C25.4978 25.1627 25.8929 24.2089 25.8929 23.2143C25.8929 22.2197 25.4978 21.2659 24.7945 20.5626C24.0912 19.8594 23.1374 19.4643 22.1429 19.4643Z" fill="white"/>
</svg>
