<svg width="196" height="24" viewBox="0 0 196 24" fill="none" xmlns="http://www.w3.org/2000/svg">
<g clip-path="url(#clip0_137_125)">
<mask id="mask0_137_125" style="mask-type:luminance" maskUnits="userSpaceOnUse" x="0" y="0" width="196" height="24">
<path d="M195.203 0H0V23.2H195.203V0Z" fill="white"/>
</mask>
<g mask="url(#mask0_137_125)">
<path d="M14.7664 8.85323C13.5755 8.85323 12.6705 8.39922 12.1465 8.036C10.7175 7.08257 9.05033 6.58315 7.38315 6.58315C6.28757 6.58315 5.19199 6.76478 4.19167 7.21879C3.85822 7.35499 3.52481 7.40039 3.14373 7.44579C3.0961 7.44579 3.04846 7.44579 3.00083 7.44579C1.38128 7.44579 0.0951687 6.26536 -9.87174e-05 4.72172C-0.0477324 3.94988 0.23807 3.22348 0.762043 2.67867C1.28601 2.08845 2.04816 1.77064 2.81029 1.77064C2.85793 1.77064 2.90556 1.77064 2.9532 1.77064C3.33427 1.77064 3.71533 1.81604 4.04878 1.95225C5.00143 2.31546 6.04938 2.49706 7.0497 2.49706C8.81214 2.49706 10.527 1.95225 12.0036 0.953421C12.5276 0.590211 13.1468 0.317805 13.8137 0.181602C14.1471 0.1362 14.4329 0.0907993 14.7664 0.0907993C16.9099 0.0907993 18.8629 1.58904 19.2916 3.5867C19.5298 4.76712 19.3392 5.90214 18.6247 6.90097C17.9578 7.8998 16.9099 8.53541 15.7191 8.80783C15.3856 8.80783 15.0998 8.85323 14.7664 8.85323Z" fill="white"/>
<path d="M14.8139 23.2C13.6707 23.2 12.7656 22.746 12.2416 22.3828C10.8126 21.4293 9.14546 20.9299 7.43065 20.9299C6.33507 20.9299 5.23949 21.1569 4.19155 21.5656C3.8581 21.7018 3.52468 21.7926 3.1436 21.7926C3.09596 21.7926 3.04833 21.7926 3.00069 21.7926C1.38114 21.7926 0.0950331 20.6121 -0.000234559 19.0685C-0.0478684 18.0697 0.476103 17.3433 0.761905 17.0254C1.09534 16.7076 1.76222 16.1628 2.81016 16.1174C2.85779 16.1174 2.90543 16.1174 2.95306 16.1174C3.33413 16.1174 3.76283 16.2082 4.09628 16.3444C5.09657 16.753 6.19215 16.9346 7.24009 16.9346C8.95491 16.9346 10.6697 16.4352 12.0987 15.4364C12.6227 15.0732 13.1943 14.8462 13.8136 14.71C14.0994 14.6646 14.4328 14.6192 14.7662 14.6192C16.8621 14.6192 18.7675 16.072 19.1962 18.0243C19.4343 19.1593 19.2438 20.2943 18.577 21.2477C17.9101 22.2012 16.9098 22.8822 15.7189 23.1092C15.4331 23.1546 15.1473 23.2 14.8139 23.2Z" fill="white"/>
<path d="M21.9111 0H27.2938V4.26771L32.3429 18.2513L37.4399 4.26771V0H42.8224V4.4947L35.8201 23.2H28.9609L21.9111 4.4493V0Z" fill="white"/>
<path d="M66.9256 23.2V0H72.3081V18.7053H82.0729V23.2H66.9256Z" fill="white"/>
<path d="M87.9317 23.2L84.7399 20.2489V2.90567L87.9317 0H101.221L104.413 2.90567V20.2489L101.221 23.2H87.9317ZM90.1227 18.7053H99.078V4.4493H90.1227V18.7053Z" fill="white"/>
<path d="M109.415 23.2V0H124.61L127.801 2.90567V11.1687L125.324 13.4841L127.944 15.8904V23.2H122.562V16.7076L121.228 15.5272H114.797V23.2H109.415ZM122.514 4.04072H114.797V11.4865H121.18L122.466 10.306V4.04072H122.514Z" fill="white"/>
<path d="M152.333 0V20.2489L149.142 23.2H135.899L132.708 20.2489V0H138.091V18.7053H146.95V0H152.333Z" fill="white"/>
<path d="M155.381 0H174.102V4.4493H167.433V23.2H162.05V4.4493H155.381V0Z" fill="white"/>
<path d="M173.959 23.2V18.7053L180.913 0H188.249L195.203 18.6599V23.2H189.821V19.2501L189.249 17.661H179.913L179.341 19.2501V23.2H173.959ZM181.009 13.575H188.154L184.581 4.04072L181.009 13.575Z" fill="white"/>
<path d="M62.9718 18.8415H46.3474V23.2454H62.9718V18.8415Z" fill="white"/>
<path d="M62.924 0H46.3474V4.4493H62.924V0Z" fill="white"/>
<path d="M62.924 9.39804H46.3474V13.8473H62.924V9.39804Z" fill="white"/>
</g>
</g>
<defs>
<clipPath id="clip0_137_125">
<rect width="196" height="24" fill="white"/>
</clipPath>
</defs>
</svg>
