<svg width="584" height="73" viewBox="0 0 584 73" fill="none" xmlns="http://www.w3.org/2000/svg">
<path d="M44.1774 27.7892C40.6147 27.7892 37.907 26.3641 36.3394 25.224C32.0642 22.2313 27.0764 20.6637 22.0886 20.6637C18.8109 20.6637 15.5332 21.2338 12.5405 22.6589C11.5429 23.0864 10.5454 23.2289 9.40531 23.3714C9.2628 23.3714 9.1203 23.3714 8.97779 23.3714C4.1325 23.3714 0.284766 19.6662 -0.000250735 14.8209C-0.142759 12.3982 0.712292 10.1181 2.27989 8.40801C3.84748 6.5554 6.12762 5.55784 8.40775 5.55784C8.55026 5.55784 8.69277 5.55784 8.83528 5.55784C9.97535 5.55784 11.1154 5.70034 12.113 6.12787C14.9631 7.26794 18.0983 7.83797 21.091 7.83797C26.3638 7.83797 31.4941 6.12787 35.9119 2.99268C37.4795 1.85261 39.3321 0.997562 41.3272 0.570036C42.3248 0.427527 43.1798 0.285019 44.1774 0.285019C50.5903 0.285019 56.4331 4.9878 57.7157 11.2582C58.4282 14.9634 57.8582 18.5261 55.7206 21.6613C53.7255 24.7965 50.5903 26.7916 47.0276 27.6467C46.03 27.6467 45.175 27.7892 44.1774 27.7892Z" fill="white"/>
<path d="M44.3195 72.8219C40.8993 72.8219 38.1916 71.3968 36.624 70.2567C32.3488 67.264 27.361 65.6964 22.2307 65.6964C18.953 65.6964 15.6753 66.409 12.5401 67.6916C11.5425 68.1191 10.545 68.4041 9.40489 68.4041C9.26238 68.4041 9.11987 68.4041 8.97736 68.4041C4.13207 68.4041 0.284342 64.6989 -0.00067534 59.8536C-0.143184 56.7184 1.42441 54.4383 2.27946 53.4407C3.27702 52.4431 5.27214 50.733 8.40733 50.5905C8.54984 50.5905 8.69235 50.5905 8.83485 50.5905C9.97492 50.5905 11.2575 50.8756 12.2551 51.3031C15.2477 52.5857 18.5254 53.1557 21.6606 53.1557C26.7909 53.1557 31.9212 51.5881 36.1965 48.4529C37.7641 47.3128 39.4742 46.6003 41.3268 46.1728C42.1819 46.0303 43.1794 45.8878 44.177 45.8878C50.4474 45.8878 56.1477 50.448 57.4303 56.5759C58.1428 60.1386 57.5728 63.7013 55.5777 66.694C53.5825 69.6867 50.5899 71.8243 47.0271 72.5369C46.1721 72.6794 45.317 72.8219 44.3195 72.8219Z" fill="white"/>
<path d="M65.5527 0H81.6562V13.3958L96.7621 57.2884L112.011 13.3958V0H128.114V14.1083L107.165 72.8219H86.644L65.5527 13.9658V0Z" fill="white"/>
<path d="M200.225 72.8219V0H216.328V58.7135H245.542V72.8219H200.225Z" fill="white"/>
<path d="M263.07 72.8219L253.521 63.5588V9.12055L263.07 0H302.829L312.378 9.12055V63.5588L302.829 72.8219H263.07ZM269.625 58.7135H296.417V13.9658H269.625V58.7135Z" fill="white"/>
<path d="M327.342 72.8219V0H372.802L382.35 9.12055V35.0571L374.94 42.325L382.778 49.878V72.8219H366.674V52.4431L362.684 48.7379H343.445V72.8219H327.342ZM366.532 12.6833H343.445V36.0547H362.541L366.389 32.3494V12.6833H366.532Z" fill="white"/>
<path d="M455.743 0V63.5588L446.195 72.8219H406.577L397.029 63.5588V0H413.133V58.7135H439.639V0H455.743Z" fill="white"/>
<path d="M464.863 0H520.869V13.9658H500.918V72.8219H484.814V13.9658H464.863V0Z" fill="white"/>
<path d="M520.441 72.8219V58.7135L541.248 0H563.194L584 58.571V72.8219H567.897V60.4236L566.187 55.4358H538.255L536.545 60.4236V72.8219H520.441ZM541.533 42.6101H562.909L552.221 12.6833L541.533 42.6101Z" fill="white"/>
<path d="M188.396 59.1411H138.66V72.9644H188.396V59.1411Z" fill="white"/>
<path d="M188.253 0H138.66V13.9658H188.253V0Z" fill="white"/>
<path d="M188.253 29.4993H138.66V43.4651H188.253V29.4993Z" fill="white"/>
</svg>
