<svg width="664" height="156" viewBox="0 0 664 156" fill="none" xmlns="http://www.w3.org/2000/svg">
<g clip-path="url(#clip0_88_2305)">
<mask id="mask0_88_2305" style="mask-type:luminance" maskUnits="userSpaceOnUse" x="-627" y="-453" width="1920" height="1080">
<path d="M1293 -453H-627V627H1293V-453Z" fill="white"/>
</mask>
<g mask="url(#mask0_88_2305)">
<mask id="mask1_88_2305" style="mask-type:luminance" maskUnits="userSpaceOnUse" x="-627" y="-453" width="1920" height="1080">
<path d="M1293 -453H-627V627H1293V-453Z" fill="white"/>
</mask>
<g mask="url(#mask1_88_2305)">
<path d="M52.4997 77.2C48.4997 77.2 45.3997 75.6 43.5997 74.3C38.7997 70.9 33.1997 69.2 27.4997 69.2C23.7997 69.2 20.0997 69.9 16.5997 71.4C15.4997 71.9 14.2997 72.1 13.0997 72.2C12.9997 72.2 12.7997 72.2 12.5997 72.2C7.19968 72.2 2.6997 68 2.4997 62.5C2.3997 59.8 3.29968 57.2 5.09968 55.2C6.89968 53.2 9.39968 52 12.0997 51.9C12.2997 51.9 12.3997 51.9 12.5997 51.9C13.8997 51.9 15.0997 52.1 16.2997 52.6C19.5997 53.9 22.9997 54.5 26.3997 54.5C32.3997 54.5 38.1997 52.6 43.1997 48.9C44.9997 47.6 47.0997 46.6 49.2997 46.2C50.3997 46 51.3997 45.9 52.4997 45.9C59.6997 45.9 66.2997 51.3 67.7997 58.4C68.6997 62.6 67.8997 66.6 65.5997 70.2C63.2997 73.8 59.8997 76.1 55.6997 77C54.6997 77.1 53.5997 77.2 52.4997 77.2Z" fill="#4EAE33"/>
</g>
<mask id="mask2_88_2305" style="mask-type:luminance" maskUnits="userSpaceOnUse" x="-627" y="-453" width="1920" height="1080">
<path d="M1293 -453H-627V627H1293V-453Z" fill="white"/>
</mask>
<g mask="url(#mask2_88_2305)">
<path d="M52.6994 128.1C48.6994 128.1 45.6994 126.6 43.8994 125.3C39.0994 121.9 33.3994 120.1 27.6994 120.1C23.9994 120.1 20.1994 120.8 16.6994 122.3C15.5994 122.8 14.3994 123 13.1994 123.1C12.9994 123.1 12.8994 123.1 12.6994 123.1C7.29938 123.1 2.79934 118.9 2.59934 113.4C2.39934 109.8 4.19935 107.3 5.29935 106.1C6.39935 104.9 8.69935 103 12.2994 102.8C12.4994 102.8 12.5994 102.8 12.7994 102.8C14.1994 102.8 15.4994 103.1 16.6994 103.6C20.0994 105 23.7994 105.7 27.3994 105.7C33.1994 105.7 38.9994 103.9 43.7994 100.4C45.4994 99.2 47.4993 98.3 49.5993 97.8C50.5993 97.6 51.6994 97.5 52.6994 97.5C59.7994 97.5 66.1993 102.7 67.5993 109.7C68.3993 113.8 67.6994 117.7 65.3994 121.2C63.0994 124.7 59.7994 126.9 55.6994 127.8C54.7994 128 53.6994 128.1 52.6994 128.1Z" fill="#4EAE33"/>
</g>
<mask id="mask3_88_2305" style="mask-type:luminance" maskUnits="userSpaceOnUse" x="-627" y="-453" width="1920" height="1080">
<path d="M1293 -453H-627V627H1293V-453Z" fill="white"/>
</mask>
<g mask="url(#mask3_88_2305)">
<path d="M76.6992 45.8H94.8992V60.9L112.099 110.6L129.199 60.9V45.8H147.399V61.7L123.799 128.1H100.499L76.6992 61.6V45.8Z" fill="#1A202F"/>
</g>
<mask id="mask4_88_2305" style="mask-type:luminance" maskUnits="userSpaceOnUse" x="-627" y="-453" width="1920" height="1080">
<path d="M1293 -453H-627V627H1293V-453Z" fill="white"/>
</mask>
<g mask="url(#mask4_88_2305)">
<path d="M229.199 128.1V45.8H247.399V112.2H280.399V128.1H229.199Z" fill="#1A202F"/>
</g>
<mask id="mask5_88_2305" style="mask-type:luminance" maskUnits="userSpaceOnUse" x="-627" y="-453" width="1920" height="1080">
<path d="M1293 -453H-627V627H1293V-453Z" fill="white"/>
</mask>
<g mask="url(#mask5_88_2305)">
<path d="M300.3 128.1L289.5 117.7V56L300.3 45.7H345.3L356.1 56V117.6L345.3 128H300.3V128.1ZM307.7 112.3H338V61.5H307.7V112.3Z" fill="#1A202F"/>
</g>
<mask id="mask6_88_2305" style="mask-type:luminance" maskUnits="userSpaceOnUse" x="-627" y="-453" width="1920" height="1080">
<path d="M1293 -453H-627V627H1293V-453Z" fill="white"/>
</mask>
<g mask="url(#mask6_88_2305)">
<path d="M373 128.1V45.7H424.5L435.3 56V85.3L426.9 93.5L435.8 102V128H417.6V105L413.2 100.9H391.3V128.1H373ZM417.2 60.1H391.2V86.6H412.9L417.2 82.5V60.1Z" fill="#1A202F"/>
</g>
<mask id="mask7_88_2305" style="mask-type:luminance" maskUnits="userSpaceOnUse" x="-627" y="-453" width="1920" height="1080">
<path d="M1293 -453H-627V627H1293V-453Z" fill="white"/>
</mask>
<g mask="url(#mask7_88_2305)">
<path d="M518.301 45.8V117.7L507.501 128.1H462.601L451.801 117.7V45.8H470.001V112.3H500.101V45.8H518.301Z" fill="#1A202F"/>
</g>
<mask id="mask8_88_2305" style="mask-type:luminance" maskUnits="userSpaceOnUse" x="-627" y="-453" width="1920" height="1080">
<path d="M1293 -453H-627V627H1293V-453Z" fill="white"/>
</mask>
<g mask="url(#mask8_88_2305)">
<path d="M528.699 45.8H591.999V61.5H569.499V128.1H551.199V61.5H528.699V45.8Z" fill="#1A202F"/>
</g>
<mask id="mask9_88_2305" style="mask-type:luminance" maskUnits="userSpaceOnUse" x="-627" y="-453" width="1920" height="1080">
<path d="M1293 -453H-627V627H1293V-453Z" fill="white"/>
</mask>
<g mask="url(#mask9_88_2305)">
<path d="M591.5 128.1V112.1L615 45.7H639.9L663.4 112V128.1H645.2V114L643.2 108.3H611.6L609.6 114V128.1H591.5ZM615.4 94H639.6L627.5 60.2L615.4 94Z" fill="#1A202F"/>
</g>
<mask id="mask10_88_2305" style="mask-type:luminance" maskUnits="userSpaceOnUse" x="-627" y="-453" width="1920" height="1080">
<path d="M1293 -453H-627V627H1293V-453Z" fill="white"/>
</mask>
<g mask="url(#mask10_88_2305)">
<path d="M215.6 112.6H159.4V128.2H215.6V112.6Z" fill="#1A202F"/>
</g>
<mask id="mask11_88_2305" style="mask-type:luminance" maskUnits="userSpaceOnUse" x="-627" y="-453" width="1920" height="1080">
<path d="M1293 -453H-627V627H1293V-453Z" fill="white"/>
</mask>
<g mask="url(#mask11_88_2305)">
<path d="M215.5 45.8H159.4V61.6H215.5V45.8Z" fill="#1A202F"/>
</g>
<mask id="mask12_88_2305" style="mask-type:luminance" maskUnits="userSpaceOnUse" x="-627" y="-453" width="1920" height="1080">
<path d="M1293 -453H-627V627H1293V-453Z" fill="white"/>
</mask>
<g mask="url(#mask12_88_2305)">
<path d="M215.5 79.2H159.4V95H215.5V79.2Z" fill="#4EAE33"/>
</g>
</g>
</g>
<defs>
<clipPath id="clip0_88_2305">
<rect width="664" height="156" fill="white"/>
</clipPath>
</defs>
</svg>
