<svg width="45" height="45" viewBox="0 0 45 45" fill="none" xmlns="http://www.w3.org/2000/svg">
<path d="M21 25L26.19 22L21 19V25ZM32.56 17.17C32.69 17.64 32.78 18.27 32.84 19.07C32.91 19.87 32.94 20.56 32.94 21.16L33 22C33 24.19 32.84 25.8 32.56 26.83C32.31 27.73 31.73 28.31 30.83 28.56C30.36 28.69 29.5 28.78 28.18 28.84C26.88 28.91 25.69 28.94 24.59 28.94L23 29C18.81 29 16.2 28.84 15.17 28.56C14.27 28.31 13.69 27.73 13.44 26.83C13.31 26.36 13.22 25.73 13.16 24.93C13.09 24.13 13.06 23.44 13.06 22.84L13 22C13 19.81 13.16 18.2 13.44 17.17C13.69 16.27 14.27 15.69 15.17 15.44C15.64 15.31 16.5 15.22 17.82 15.16C19.12 15.09 20.31 15.06 21.41 15.06L23 15C27.19 15 29.8 15.16 30.83 15.44C31.73 15.69 32.31 16.27 32.56 17.17Z" fill="white"/>
</svg>
